<svg width="60" height="56" viewBox="0 0 60 56" fill="none" xmlns="http://www.w3.org/2000/svg">
<path d="M51.4085 39.9048C49.0811 36.78 45.758 34.5419 41.9876 33.5596L41.8701 33.5343L39.1537 38.1192C39.1519 38.7297 38.9085 39.3146 38.4768 39.7463C38.0452 40.178 37.4602 40.4213 36.8497 40.4232C35.5825 40.4232 34.5457 39.3864 33.3362 36.3359V36.2622C33.3362 35.4984 33.0327 34.7658 32.4926 34.2257C31.9525 33.6857 31.22 33.3822 30.4562 33.3822C29.6924 33.3822 28.9598 33.6857 28.4197 34.2257C27.8796 34.7658 27.5762 35.4984 27.5762 36.2622V36.3382V36.3336C26.286 39.3864 25.24 40.4209 23.9751 40.4209C23.3646 40.419 22.7797 40.1757 22.348 39.744C21.9163 39.3123 21.673 38.7274 21.6711 38.1169L19.04 33.5228C15.2436 34.4884 11.8902 36.7202 9.53383 39.8495L9.50157 39.8933C8.56754 41.4209 8.04744 43.1654 7.99247 44.9551V44.9712C8.00399 45.3168 7.99247 45.72 7.99247 46.1232V50.7311C7.99247 51.9532 8.47795 53.1253 9.34211 53.9894C10.2063 54.8536 11.3783 55.3391 12.6004 55.3391H48.312C49.5341 55.3391 50.7061 54.8536 51.5703 53.9894C52.4344 53.1253 52.9199 51.9532 52.9199 50.7311V46.1232C52.9199 45.7223 52.9084 45.3168 52.9199 44.9712C52.8619 43.1611 52.333 41.3974 51.3855 39.8541L51.4108 39.9002L51.4085 39.9048ZM18.358 12.2456C18.358 18.9732 22.5513 28.8572 30.4539 28.8572C38.2183 28.8572 42.5497 18.9732 42.5497 12.2456V12.0958C42.5497 10.5074 42.2369 8.9345 41.629 7.46697C41.0211 5.99943 40.1301 4.66599 39.0069 3.54279C37.8837 2.41959 36.5503 1.52861 35.0828 0.920741C33.6152 0.312868 32.0423 0 30.4539 0C28.8654 0 27.2925 0.312868 25.825 0.920741C24.3575 1.52861 23.024 2.41959 21.9008 3.54279C20.7776 4.66599 19.8867 5.99943 19.2788 7.46697C18.6709 8.9345 18.358 10.5074 18.358 12.0958V12.2525V12.2456ZM44.2408 16.2084C44.2408 20.5906 46.9734 27.0325 52.1204 27.0325C57.1776 27.0325 60 20.5929 60 16.2084V16.0886C60 13.9982 59.1696 11.9934 57.6915 10.5153C56.2133 9.03715 54.2085 8.20674 52.1181 8.20674C50.0277 8.20674 48.0229 9.03715 46.5448 10.5153C45.0666 11.9934 44.2362 13.9982 44.2362 16.0886V16.2153V16.2084H44.2408ZM0.00460794 19.8948C0.00460794 24.2769 2.73712 30.7188 7.88419 30.7188C12.9414 30.7188 15.7638 24.2792 15.7638 19.8948V19.775C15.7638 17.6846 14.9334 15.6798 13.4552 14.2016C11.9771 12.7235 9.97229 11.8931 7.88188 11.8931C5.79148 11.8931 3.78669 12.7235 2.30855 14.2016C0.83041 15.6798 0 17.6846 0 19.775L0 19.9017V19.8948H0.00460794Z" fill="white"/>
</svg>
